<?xml version="1.0" standalone="no"?>
<!DOCTYPE svg PUBLIC "-//W3C//DTD SVG 20010904//EN"
 "http://www.w3.org/TR/2001/REC-SVG-20010904/DTD/svg10.dtd">
<svg version="1.0" xmlns="http://www.w3.org/2000/svg"
 width="1200.000000pt" height="1200.000000pt" viewBox="0 0 1200.000000 1200.000000"
 preserveAspectRatio="xMidYMid meet">

<g transform="translate(0.000000,1200.000000) scale(0.100000,-0.100000)"
fill="#000000" stroke="none">
<path d="M5329 10856 c-2 -2 -47 -9 -99 -15 -122 -15 -360 -63 -475 -96 -177
-51 -291 -123 -283 -178 8 -53 166 -130 344 -166 186 -38 490 -44 745 -16 l55
7 32 -69 c38 -83 67 -202 84 -348 20 -167 16 -718 -6 -925 -9 -91 -21 -230
-26 -309 -5 -78 -11 -145 -13 -147 -2 -3 -7 57 -11 133 -4 76 -9 156 -11 178
-3 22 -9 180 -15 350 -12 347 -32 552 -60 629 -22 58 -76 118 -131 147 -78 39
-302 86 -524 109 -510 52 -631 71 -639 99 -3 9 -10 43 -16 76 -16 84 -39 155
-62 188 -22 30 -67 57 -97 57 -54 0 -129 -120 -116 -186 3 -18 18 -48 32 -65
28 -33 145 -95 199 -105 26 -5 33 -12 38 -37 21 -118 50 -426 76 -812 34 -503
42 -579 71 -680 94 -318 302 -422 928 -465 141 -10 182 -9 279 6 30 5 32 3 32
-26 l0 -30 -152 0 c-84 0 -193 5 -243 10 -49 5 -166 16 -260 25 -164 15 -175
17 -300 67 -71 28 -201 84 -287 125 -176 84 -246 100 -305 69 -117 -60 39
-177 296 -221 47 -9 159 -24 249 -35 133 -17 177 -26 245 -54 45 -19 180 -68
300 -110 242 -84 312 -117 375 -173 l42 -38 -16 -60 c-31 -120 -125 -326 -183
-405 -144 -194 -193 -418 -108 -489 24 -19 21 -31 -8 -31 -37 0 -86 -24 -117
-56 -146 -156 -115 -694 111 -1934 28 -151 73 -407 101 -568 85 -496 145 -792
295 -1467 79 -357 187 -861 240 -1120 131 -642 145 -695 177 -695 11 0 10 6
-21 120 -11 41 -70 318 -131 615 -61 297 -172 811 -246 1142 -125 560 -216
1018 -279 1393 -14 85 -55 317 -91 515 -87 480 -137 789 -176 1085 -27 211
-32 276 -32 470 -1 244 8 314 50 386 27 48 57 70 107 79 43 8 40 16 56 -160
10 -112 33 -244 60 -342 11 -39 38 -79 48 -70 2 2 -8 48 -21 101 -30 112 -66
347 -66 424 l0 52 53 0 c79 0 322 -18 407 -31 41 -6 188 -33 325 -60 338 -66
434 -79 610 -79 339 0 640 55 877 161 88 40 99 42 191 43 98 1 99 1 128 33 43
49 47 79 15 111 -33 33 -51 27 -153 -47 l-72 -53 -49 16 c-26 9 -84 37 -127
62 -214 123 -325 168 -513 208 -169 36 -316 46 -505 36 -165 -10 -191 -13
-299 -36 -155 -33 -242 -67 -539 -213 -162 -79 -247 -111 -293 -111 -56 0 -60
8 -53 117 7 114 34 222 85 347 33 81 47 101 139 197 131 139 144 183 83 286
-24 40 -24 39 6 289 l5 41 107 10 c59 5 121 6 137 1 17 -4 98 -12 181 -18 313
-20 636 33 802 132 148 88 244 220 246 339 1 52 -2 63 -23 80 -14 11 -39 19
-61 19 -45 0 -93 -33 -213 -147 -42 -40 -103 -90 -134 -110 -147 -94 -532
-215 -788 -248 -44 -5 -55 -3 -97 24 -27 17 -48 34 -48 38 1 5 35 24 78 43
107 49 192 134 253 255 87 169 112 281 112 505 0 160 -10 253 -53 505 -61 358
-100 672 -100 818 0 76 2 87 18 87 37 0 122 49 142 82 25 42 25 59 -1 92 -55
70 -189 -14 -189 -120 0 -31 -1 -32 -62 -43 -52 -9 -189 -28 -331 -44 -23 -3
-34 4 -59 37 -17 23 -49 59 -70 82 l-39 41 45 17 c98 38 176 124 145 162 -22
27 -88 55 -177 74 -80 18 -173 26 -183 16z m172 -46 c81 -15 159 -49 159 -69
0 -30 -68 -83 -147 -114 l-41 -16 -70 35 c-81 42 -167 53 -264 35 -148 -29
-227 -97 -140 -120 51 -15 302 -13 390 3 l73 12 64 -68 c36 -38 65 -72 65 -77
0 -14 -74 -21 -300 -27 -240 -8 -364 2 -519 42 -117 29 -261 97 -261 123 0 64
174 136 471 196 253 51 413 65 520 45z m-136 -180 c47 -21 49 -23 26 -31 -35
-14 -246 -23 -326 -14 l-70 7 39 20 c97 50 240 57 331 18z m849 -6 c24 -9 20
-57 -7 -82 -22 -21 -86 -52 -107 -52 -32 0 12 104 53 124 36 18 40 18 61 10z
m-2050 -115 c14 -11 33 -34 42 -50 13 -27 53 -186 54 -216 0 -29 -189 59 -210
97 -13 25 -13 86 1 113 16 31 61 77 75 77 6 0 23 -9 38 -21z m1895 -182 c2
-107 39 -424 72 -617 73 -418 73 -422 73 -655 0 -256 -11 -313 -91 -474 -64
-131 -139 -209 -250 -263 -46 -22 -85 -39 -87 -37 -9 11 -29 55 -38 83 -16 54
-9 398 13 611 30 305 37 433 32 635 -7 343 -30 527 -84 673 -17 45 -32 89 -35
98 -5 14 8 17 88 23 51 4 138 15 193 25 l100 17 6 -26 c4 -14 7 -56 8 -93z
m-1669 -156 c79 -15 268 -38 470 -56 198 -18 462 -65 547 -96 75 -29 133 -87
156 -159 26 -79 44 -289 57 -645 6 -170 17 -398 25 -505 8 -107 14 -254 15
-326 l0 -131 -37 -7 c-68 -11 -276 -6 -439 10 -503 49 -680 167 -748 498 -16
75 -24 177 -66 786 -19 277 -51 586 -66 633 -5 15 -2 18 13 14 10 -3 43 -10
73 -16z m2735 -1535 c26 -39 -5 -147 -64 -220 -145 -181 -417 -266 -851 -266
-98 0 -181 4 -184 8 -3 5 32 14 77 21 98 15 392 106 520 161 113 49 168 86
286 195 139 129 184 150 216 101z m-2860 -216 c32 -11 79 -32 104 -47 25 -15
109 -53 186 -85 l140 -59 -65 7 c-205 19 -384 64 -463 114 -56 35 -68 57 -42
76 26 19 72 17 140 -6z m1445 -70 c0 -8 7 -28 15 -44 17 -33 18 -31 -12 -40
-22 -7 -23 -5 -23 61 0 48 3 63 10 53 5 -8 10 -22 10 -30z m90 -145 l34 -35
-50 0 c-27 0 -59 -3 -71 -6 -21 -6 -23 -3 -23 29 0 29 4 36 23 40 46 9 54 6
87 -28z m-626 -60 c82 -8 222 -15 312 -15 l164 0 0 -55 c0 -67 -20 -205 -30
-205 -4 0 -15 9 -25 20 -50 55 -179 110 -555 237 -89 30 -112 46 -55 38 22 -3
107 -12 189 -20z m491 -385 c8 -16 15 -48 15 -70 0 -37 -6 -48 -62 -106 -34
-35 -63 -63 -64 -61 -2 1 12 41 31 87 19 47 39 106 46 132 6 27 13 48 15 48 2
0 10 -13 19 -30z m-280 -553 c-13 -40 -28 -110 -35 -157 -6 -47 -14 -101 -17
-120 l-6 -35 -12 35 c-18 47 -18 75 0 145 15 56 79 205 88 205 3 0 -5 -33 -18
-73z m1655 -62 c201 -43 272 -72 543 -218 l118 -64 -63 -28 c-96 -43 -212 -81
-338 -109 -156 -34 -253 -45 -460 -52 -210 -8 -313 4 -670 76 -262 53 -428 77
-552 82 -43 1 -78 6 -78 10 0 4 6 8 13 8 6 0 114 50 239 110 389 189 528 221
923 216 173 -3 217 -7 325 -31z m918 -182 c14 -23 -6 -61 -39 -79 -28 -14
-100 -19 -112 -8 -6 6 121 104 135 104 4 0 11 -8 16 -17z"/>
<path d="M5790 611 c0 -24 -19 -28 -98 -24 -52 3 -68 0 -92 -17 -17 -12 -30
-30 -30 -41 0 -11 -4 -17 -10 -14 -5 3 -10 14 -10 24 0 34 -33 52 -91 48 l-54
-3 -3 -93 c-3 -84 -1 -92 15 -89 15 3 19 16 23 73 5 68 6 70 34 73 38 5 46
-10 46 -86 0 -55 2 -63 18 -60 11 2 19 16 23 43 3 22 7 33 8 24 0 -10 17 -31
37 -49 31 -27 42 -31 73 -26 34 6 35 5 17 -9 -25 -19 -50 -19 -66 0 -16 19
-50 19 -50 0 0 -26 60 -57 99 -51 60 9 76 35 80 131 2 64 6 85 17 85 10 0 14
-15 14 -56 0 -78 11 -94 65 -94 l45 0 0 71 c0 62 2 71 20 76 11 3 20 14 20 25
0 16 -6 18 -42 15 -53 -6 -68 0 -68 24 0 12 -7 19 -20 19 -13 0 -20 -7 -20
-19z m-86 -83 c9 -12 16 -30 16 -39 0 -26 -35 -51 -66 -47 -36 4 -53 44 -36
83 15 33 64 35 86 3z m156 -34 c0 -73 -24 -70 -28 4 -2 42 0 52 12 52 13 0 16
-12 16 -56z"/>
<path d="M5194 581 c-10 -10 -3 -218 7 -228 17 -17 39 -4 39 24 0 22 3 24 31
18 68 -15 128 47 115 118 -10 56 -45 77 -123 75 -35 -2 -66 -4 -69 -7z m140
-56 c22 -34 20 -50 -10 -74 -31 -25 -65 -15 -78 22 -23 63 52 107 88 52z"/>
<path d="M5959 561 c-22 -23 -29 -39 -29 -69 0 -33 6 -45 37 -72 31 -27 42
-31 72 -26 24 3 44 15 59 35 l24 30 25 -29 c44 -53 113 -50 150 6 14 22 14 27
2 35 -11 7 -10 9 5 9 15 0 17 5 12 31 -3 18 -18 42 -32 55 -45 43 -132 26
-154 -30 -8 -20 -8 -20 -18 6 -23 56 -105 67 -153 19z m109 -23 c22 -22 13
-28 -38 -28 -27 0 -50 2 -50 4 0 2 3 11 6 20 7 19 64 22 82 4z m192 -8 c10
-19 8 -20 -40 -20 -35 0 -50 4 -50 13 0 21 11 27 46 27 23 0 37 -6 44 -20z
m-189 -71 c-30 -25 -84 -23 -89 4 -3 15 5 17 55 17 l58 -1 -24 -20z m199 13
c0 -31 -67 -43 -94 -16 -9 8 -16 17 -16 20 0 2 25 4 55 4 30 0 55 -4 55 -8z"/>
<path d="M6401 571 c-27 -27 -36 -84 -21 -122 25 -59 85 -76 133 -38 l26 20
30 -22 c36 -26 82 -19 111 18 l20 26 0 -27 c0 -19 5 -26 20 -26 18 0 20 7 20
64 0 68 17 101 45 90 11 -5 15 -24 15 -80 0 -67 2 -74 20 -74 18 0 20 7 20 64
0 68 17 101 45 90 11 -5 15 -23 15 -74 0 -44 5 -71 13 -79 22 -18 27 -2 27 80
0 57 -4 82 -16 93 -17 18 -79 22 -89 6 -5 -8 -11 -8 -20 0 -7 6 -35 10 -62 8
-40 -3 -48 -6 -51 -24 -3 -22 -3 -22 -27 2 -30 30 -92 33 -122 5 -20 -19 -20
-19 -36 0 -23 26 -90 26 -116 0z m239 -31 c41 -41 8 -120 -42 -101 -43 15 -31
121 13 121 5 0 18 -9 29 -20z m-136 -15 c21 -32 20 -40 -6 -70 -26 -30 -38
-31 -66 -5 -26 25 -28 57 -5 82 23 25 58 23 77 -7z"/>
<path d="M6325 420 c-8 -14 3 -30 21 -30 8 0 14 9 14 20 0 21 -24 28 -35 10z"/>
</g>
</svg>
